PathFileType	4	(X/Y/Z)	C:\Users\chris\Documents\GitHub\baseballds\vids\pitch5_Sports2D\pitch5_Sports2D_m_person06.trc
DataRate	CameraRate	NumFrames	NumMarkers	Units	OrigDataRate	OrigDataStartFrame	OrigNumFrames
30	30	6	22	m	30	111	149
Frame#	Time	Hip			RHip			RKnee			RAnkle			RBigToe			RSmallToe			RHeel			LHip			LKnee			LAnkle			LBigToe			LSmallToe			LHeel			Neck			Head			Nose			RShoulder			RElbow			RWrist			LShoulder			LElbow			LWrist		
		X1	Y1	Z1	X2	Y2	Z2	X3	Y3	Z3	X4	Y4	Z4	X5	Y5	Z5	X6	Y6	Z6	X7	Y7	Z7	X8	Y8	Z8	X9	Y9	Z9	X10	Y10	Z10	X11	Y11	Z11	X12	Y12	Z12	X13	Y13	Z13	X14	Y14	Z14	X15	Y15	Z15	X16	Y16	Z16	X17	Y17	Z17	X18	Y18	Z18	X19	Y19	Z19	X20	Y20	Z20	X21	Y21	Z21	X22	Y22	Z22
111	3.6999999999999997	2.5414316827018046	1.0619694397124277	0.0	2.5655850416020285	1.0685413277998395	0.0	2.6693156806325313	0.8668501193533098	0.0	2.639783779704085	0.6547527557809858	0.0	2.729551356482814	0.6067436830188409	0.0	2.7166749533189387	0.5990511045580661	0.0	2.6175793054760317	0.6181808202820028	0.0	2.5066864970763993	1.0698836468005377	0.0	2.5616866327084855	0.8665155174848698	0.0	2.5426632643211984	0.6502525060936629	0.0	2.6219507679501715	0.6173796452344248	0.0	2.603850544255296	0.620933682540559	0.0	2.5283452279327303	0.6132296398608613	0.0	2.5526014191047626	1.3658704496661882	0.0	2.579955216859802	1.5033463237186586	0.0	2.6167920838245258	1.426853882426156	0.0	2.5767901386180116	1.321611886136484	0.0	2.6297259496276437	1.1921370757647056	0.0	2.695332759099876	1.2683743804808247	0.0	2.5045062322468628	1.327377300530101	0.0	2.4729768145870357	1.1942839623197192	0.0	2.462958644325262	1.124835704751987	0.0
112	3.7333333333333334	2.5457166897184087	1.0602948045797984	0.0	2.5743430232186513	1.0666902575854962	0.0	2.6760623569591915	0.8674663481639108	0.0	2.6683533063515528	0.6502529532249081	0.0	2.762611558979851	0.6099157955211678	0.0	2.7505568623879864	0.6005381858161454	0.0	2.6467172463746977	0.613717312049716	0.0	2.5127139519258095	1.0666844904855828	0.0	2.564628097685473	0.8674359146722925	0.0	2.5407528845702916	0.6497200034001553	0.0	2.61733948351953	0.6201323208863309	0.0	2.6012061056594358	0.6228516458150986	0.0	2.523139487357449	0.6128316095086591	0.0	2.559443415240964	1.3650362971827186	0.0	2.5839098482453697	1.5021394746828918	0.0	2.6241567979551386	1.4271073747177287	0.0	2.5833570561793135	1.320356769086362	0.0	2.6333415045515443	1.1900057027301894	0.0	2.709854563982688	1.2400091447479298	0.0	2.5110105092372037	1.3287778433747761	0.0	2.4935331241006	1.1871636148761846	0.0	2.531480667748818	1.1477680371272632	0.0
113	3.7666666666666666	2.552711793179479	1.0593125195071718	0.0	2.585102830505829	1.063221387984931	0.0	2.6819444785428304	0.8676027499997198	0.0	2.694681137266706	0.6465618920227882	0.0	2.7894637789158887	0.6120568736971204	0.0	2.779325662481254	0.5998871568037452	0.0	2.6735979330119464	0.6115788473730165	0.0	2.5208167514079203	1.0614193758327781	0.0	2.567436758554551	0.8659556700736569	0.0	2.539327759834809	0.6485748769453817	0.0	2.615492688985633	0.6185552229788919	0.0	2.601090869193419	0.6221573799727964	0.0	2.51895004034413	0.6121577559531495	0.0	2.5695327478170413	1.3633947923963978	0.0	2.59280722496272	1.4968682691798716	0.0	2.6350446599479693	1.423237250271844	0.0	2.5925287433670747	1.3185660612939873	0.0	2.6389164335822124	1.18882953522099	0.0	2.7212072643027256	1.2206056031350012	0.0	2.518263553284584	1.3296520171888022	0.0	2.502758073656329	1.1844593931349185	0.0	2.5906578929935336	1.1672911704003746	0.0
114	3.8	2.5612651484054845	1.0587577341782413	0.0	2.596413416794226	1.0596593971522803	0.0	2.687338346694015	0.8661858430560536	0.0	2.7168077132793442	0.6450603230382838	0.0	2.809121892445118	0.6148913024182455	0.0	2.8006569934302123	0.5998288634410229	0.0	2.6966664919028855	0.6115016698666458	0.0	2.52926620618647	1.0567189169688829	0.0	2.5704295850230494	0.8636203627844712	0.0	2.5400758459737323	0.6464584901067091	0.0	2.617703457542835	0.6144176187456245	0.0	2.603932382147805	0.6189062375805087	0.0	2.519414955761154	0.6104276187095792	0.0	2.5796338429861816	1.360801216263914	0.0	2.6048978427645686	1.4899073335281952	0.0	2.6441944562205757	1.4169475113051333	0.0	2.6017190841819113	1.3165043659182658	0.0	2.651443970453779	1.190402720850079	0.0	2.7258191444719615	1.233507397299444	0.0	2.5273464188438064	1.32926274797529	0.0	2.5287752488019994	1.1920422361351999	0.0	2.648661452907408	1.213871931484507	0.0
115	3.8333333333333335	2.5694946678841912	1.0576996128465985	0.0	2.6056940026453512	1.0575883795494117	0.0	2.692944258146575	0.8631505676797326	0.0	2.734466520405262	0.6461818584256215	0.0	2.8241519642369943	0.61913381788077	0.0	2.815481441863537	0.6023079321291726	0.0	2.714934907547655	0.6123567060271754	0.0	2.5358529447162708	1.0543570293838287	0.0	2.574909862206852	0.8627614416480505	0.0	2.541775210786161	0.6472306634632741	0.0	2.618974210901098	0.61422275391385	0.0	2.604381364457495	0.6201501967033383	0.0	2.5222538432775057	0.6111374152081096	0.0	2.5845969442582977	1.35894216658663	0.0	2.609235406339507	1.4870060528344915	0.0	2.6459034357928033	1.4136667422220592	0.0	2.6061413647523346	1.3160301389715943	0.0	2.6673724771208907	1.1947805045197606	0.0	2.73008449797191	1.261328167862511	0.0	2.5358648003391484	1.3283392592215246	0.0	2.5832158599968404	1.2052655597566995	0.0	2.6928311338011968	1.2695420978980752	0.0
116	3.8666666666666667	2.577581106181759	1.0562854196113562	0.0	2.6129966975624295	1.0568954068547138	0.0	2.698558053368104	0.8590320728714919	0.0	2.747940997480535	0.6475669337544818	0.0	2.83557335411324	0.6222902960116092	0.0	2.8260323591343526	0.6051445604102083	0.0	2.7287235441223254	0.6133404988520775	0.0	2.541260968620747	1.053281449941774	0.0	2.5797536386500517	0.8623209876674861	0.0	2.5412381761355767	0.6543045891625497	0.0	2.6134593301315174	0.6210686093443644	0.0	2.594169810562316	0.63552185865194	0.0	2.5212787195413733	0.6203372156538959	0.0	2.585123623599412	1.3589629574798041	0.0	2.603847651670788	1.489906696387942	0.0	2.6443210654596174	1.4159385052720121	0.0	2.606644968765128	1.3183801872433978	0.0	2.6798718017335115	1.2000189890233341	0.0	2.7358580471039007	1.27700580194866	0.0	2.5411587330920207	1.328146121152436	0.0	2.6337638562750967	1.2110469282871594	0.0	2.702737871700529	1.2786539390289497	0.0
